<svg width="321" height="82" xmlns="http://www.w3.org/2000/svg" overflow="hidden"><defs><clipPath id="prefix__a"><path d="M320 296h321v82H320z"/></clipPath></defs><g clip-path="url(#prefix__a)" transform="translate(-320 -296)" fill-rule="evenodd"><path d="M610.26 304.859a34.762 34.762 0 019.932 1.196c3.208.873 6.061 2.225 8.557 4.057 2.496 1.832 4.516 4.138 6.059 6.919 1.544 2.781 2.357 6.043 2.439 9.784.052 2.335-.104 4.457-.466 6.367-.362 1.909-.96 3.667-1.793 5.272-.833 1.606-1.923 3.097-3.271 4.475-1.347 1.377-2.98 2.701-4.898 3.971l11.105 18.802-20.118 4.396-7.335-18.975-5.564.302-.397 18.696-19.307.425c0-6.828-.008-13.626-.022-20.393-.014-6.768-.007-13.566.023-20.395l-.046-10.241c-.015-3.384.03-6.799.134-10.245a58.853 58.853 0 016.153-2.067 58.303 58.303 0 016.103-1.325c2.044-.329 4.12-.57 6.228-.721 2.108-.151 4.269-.251 6.484-.3zm-1.368 15.393c-.598.013-1.181.064-1.748.151a12.11 12.11 0 00-1.654.373l-.351 16.719 1.078-.024a16.304 16.304 0 003.918-.581c1.324-.358 2.511-.893 3.558-1.605a8.47 8.47 0 002.546-2.707c.65-1.092.958-2.387.925-3.883-.028-1.257-.225-2.406-.592-3.446-.368-1.04-.896-1.934-1.587-2.683-.69-.748-1.541-1.329-2.554-1.74-1.012-.412-2.192-.603-3.539-.574zM343.489 311.093a52.16 52.16 0 016.452.262 35.61 35.61 0 016.293 1.209 27.82 27.82 0 015.666 2.323 18.272 18.272 0 014.639 3.604c1.334 1.438 2.39 3.122 3.166 5.052.776 1.929 1.192 4.166 1.248 6.71.037 1.677-.168 3.253-.614 4.73a13.073 13.073 0 01-1.979 3.997 12.775 12.775 0 01-3.212 3.058c-1.269.852-2.707 1.49-4.315 1.914 1.957.466 3.747 1.176 5.37 2.128a15.763 15.763 0 014.165 3.502 15.955 15.955 0 012.709 4.702c.653 1.753 1.001 3.632 1.045 5.637.055 2.485-.355 4.635-1.228 6.451a14.192 14.192 0 01-3.558 4.66c-1.499 1.291-3.235 2.355-5.208 3.192a37.313 37.313 0 01-6.178 2 47.793 47.793 0 01-6.468 1.041 88.737 88.737 0 01-6.079.359c-1.856.04-3.78.015-5.774-.075a61.676 61.676 0 01-5.964-.565 51.66 51.66 0 01-5.866-1.196 33.197 33.197 0 01-5.479-1.969l-1.363-57.828a54.666 54.666 0 015.302-1.981 61.418 61.418 0 015.738-1.519c1.953-.417 3.9-.744 5.841-.982a56.938 56.938 0 015.651-.416zm1.946 19.003a5.805 5.805 0 00-1.745.308c-.565.193-1.114.414-1.648.666l-.05 9.973c.689-.015 1.54-.094 2.556-.236a10.548 10.548 0 002.923-.85 6.324 6.324 0 002.363-1.849c.641-.808.946-1.9.916-3.277-.019-.868-.215-1.605-.588-2.211a4.985 4.985 0 00-1.358-1.475 5.375 5.375 0 00-1.725-.815c-.617-.166-1.165-.244-1.644-.234zm-.739 19.512c-.868.02-1.704.128-2.508.325l.046 10.241c.451.08.894.153 1.33.218a7.57 7.57 0 001.282.084 11.682 11.682 0 002.061-.248 6.057 6.057 0 002.092-.854 5.047 5.047 0 001.603-1.675c.419-.698.616-1.616.591-2.753-.025-1.138-.263-2.061-.713-2.77-.449-.709-.993-1.258-1.631-1.648a5.605 5.605 0 00-2.083-.763 11.83 11.83 0 00-2.07-.157zM558.023 306.818c2.664-.059 5.105.254 7.321.939 2.216.685 4.199 1.66 5.949 2.924a21.02 21.02 0 014.592 4.548 26.808 26.808 0 013.273 5.835 35.302 35.302 0 011.99 6.739c.457 2.371.712 4.784.766 7.238a57.175 57.175 0 01-.367 7.825 191.933 191.933 0 00-15.23 1.93c-5.043.844-10.086 1.682-15.128 2.511.825 2.138 2.083 3.833 3.773 5.083 1.689 1.251 3.686 1.851 5.991 1.8 1.198-.026 2.502-.28 3.914-.76a32.491 32.491 0 004.206-1.777 47.21 47.21 0 003.993-2.267 76.98 76.98 0 003.276-2.183l-1.706 20.431a19.86 19.86 0 01-3.744 2.374 26.15 26.15 0 01-4.209 1.62 32.492 32.492 0 01-4.426.951 37.132 37.132 0 01-4.395.366c-2.963.065-5.681-.279-8.153-1.033-2.472-.754-4.72-1.835-6.742-3.243a25.03 25.03 0 01-5.344-5.026 30.039 30.039 0 01-3.869-6.384 37.349 37.349 0 01-2.408-7.358 41.09 41.09 0 01-.938-7.886 46.351 46.351 0 01.58-8.368 41.606 41.606 0 012.135-8.088 34.124 34.124 0 013.749-7.247 27.98 27.98 0 015.373-5.891c2.059-1.692 4.403-3.032 7.031-4.018 2.629-.986 5.545-1.515 8.747-1.585zm.507 18.945c-1.197.027-2.245.372-3.144 1.035a9.355 9.355 0 00-2.304 2.477 14.658 14.658 0 00-1.546 3.201 24.128 24.128 0 00-.874 3.164l13.263-1.55-.022-.988a12.987 12.987 0 00-.326-2.576 8.204 8.204 0 00-.929-2.383 5.34 5.34 0 00-1.633-1.738c-.669-.45-1.497-.663-2.485-.642zM478.81 310.269l-.03 19.047-13.368.834-.699 41.702-18.926 1.405-2.623-41.629-13.364 1.013.072-21.204 48.938-1.168zM528.785 309.169l-.03 19.047-13.368.833-.699 41.702-18.926 1.405-2.624-41.628-13.364 1.013.073-21.205 48.938-1.167zM408.158 311.915a366.034 366.034 0 0011.588-.076c1.497-.033 3.001-.073 4.512-.121a93.62 93.62 0 004.554-.258 888.888 888.888 0 00-2.765 31.528 3289.286 3289.286 0 00-2.045 31.557l-18.379 1.753.656-6.933a9.637 9.637 0 01-2.049 1.842c-.782.527-1.618.957-2.509 1.291-.891.334-1.814.579-2.769.735-.955.155-1.867.228-2.735.217-2.037.015-3.961-.339-5.774-1.063a19.144 19.144 0 01-5.006-2.945 23.985 23.985 0 01-4.139-4.356 30.426 30.426 0 01-3.148-5.276 30.937 30.937 0 01-2.012-5.683c-.477-1.936-.735-3.817-.776-5.643a232.388 232.388 0 01-.027-8.377c.041-2.891.165-5.791.37-8.701.206-2.909.494-5.79.865-8.643a86.923 86.923 0 011.459-8.208c3.656.099 7.327.183 11.012.252 3.685.068 7.352.032 11.003-.108-.631 2.619-1.255 5.246-1.871 7.88a160.431 160.431 0 00-1.644 7.942c-.48 2.661-.856 5.327-1.127 7.999a65.942 65.942 0 00-.315 8.092c.013.629.063 1.526.149 2.692.085 1.166.268 2.315.547 3.447.28 1.132.691 2.119 1.233 2.96.543.842 1.293 1.252 2.251 1.231 1.137-.025 2.144-.534 3.021-1.527.877-.992 1.641-2.319 2.293-3.981.652-1.661 1.202-3.575 1.648-5.741a86.2 86.2 0 001.109-6.785c.292-2.357.517-4.736.673-7.135.157-2.399.265-4.655.323-6.768.058-2.112.092-4.007.1-5.684.008-1.677.001-2.98-.019-3.908a32.533 32.533 0 00-.084-1.75c-.042-.568-.1-1.151-.173-1.748z" fill="#7F6000" fill-opacity=".8"/><path d="M612.521 296.765a34.684 34.684 0 019.931 1.196c3.209.873 6.061 2.225 8.557 4.056 2.496 1.832 4.516 4.139 6.06 6.92 1.543 2.781 2.356 6.042 2.439 9.784.051 2.334-.104 4.457-.466 6.366-.363 1.91-.96 3.667-1.794 5.273-.833 1.606-1.923 3.097-3.27 4.474-1.347 1.378-2.98 2.701-4.899 3.971l11.105 18.802-20.117 4.396-7.336-18.974-5.563.302-.397 18.696-19.307.425c-.001-6.828-.008-13.626-.022-20.394-.015-6.768-.007-13.566.022-20.394l-.046-10.241c-.014-3.384.03-6.799.134-10.245a58.406 58.406 0 016.154-2.067 58.031 58.031 0 016.102-1.325c2.044-.33 4.12-.57 6.228-.721 2.108-.152 4.27-.252 6.485-.3zm-1.368 15.393c-.599.013-1.182.063-1.749.15-.567.088-1.118.212-1.654.374l-.35 16.718 1.077-.024a16.295 16.295 0 003.918-.58c1.325-.359 2.511-.894 3.559-1.606a8.463 8.463 0 002.545-2.706c.65-1.092.959-2.387.926-3.884-.028-1.257-.226-2.405-.593-3.446-.367-1.04-.896-1.934-1.586-2.682-.691-.749-1.542-1.329-2.554-1.741-1.013-.412-2.192-.603-3.539-.573zM345.749 302.998a52.35 52.35 0 016.452.263 35.43 35.43 0 016.293 1.209 27.75 27.75 0 015.667 2.323 18.29 18.29 0 014.639 3.604c1.334 1.438 2.389 3.122 3.165 5.051.777 1.93 1.193 4.166 1.249 6.711.037 1.676-.168 3.253-.615 4.73a13.093 13.093 0 01-1.978 3.997 12.792 12.792 0 01-3.212 3.058c-1.269.851-2.707 1.489-4.315 1.914 1.957.466 3.747 1.175 5.37 2.128a15.76 15.76 0 014.165 3.502 15.986 15.986 0 012.709 4.702c.652 1.752 1 3.631 1.045 5.637.054 2.484-.355 4.634-1.228 6.45a14.212 14.212 0 01-3.559 4.661c-1.499 1.29-3.235 2.354-5.208 3.191a37.305 37.305 0 01-6.177 2.001 48.161 48.161 0 01-6.468 1.041 88.742 88.742 0 01-6.079.358 85.358 85.358 0 01-5.774-.075 61.352 61.352 0 01-5.965-.565 51.443 51.443 0 01-5.866-1.196 33.228 33.228 0 01-5.479-1.968l-1.363-57.828a54.148 54.148 0 015.302-1.981 60.905 60.905 0 015.739-1.519 66.53 66.53 0 015.841-.982 56.949 56.949 0 015.65-.417zm1.946 19.004a5.779 5.779 0 00-1.745.308c-.565.192-1.114.414-1.647.665l-.05 9.974c.688-.016 1.54-.094 2.555-.236a10.557 10.557 0 002.924-.851 6.31 6.31 0 002.362-1.849c.641-.807.947-1.9.916-3.277-.019-.868-.215-1.605-.587-2.21a4.973 4.973 0 00-1.358-1.475 5.367 5.367 0 00-1.725-.816c-.618-.166-1.166-.244-1.645-.233zm-.738 19.512c-.868.019-1.704.127-2.509.325l.046 10.241c.451.08.895.152 1.33.217.436.066.863.094 1.282.085a11.755 11.755 0 002.061-.248 6.044 6.044 0 002.093-.855 5.034 5.034 0 001.602-1.675c.419-.698.616-1.615.591-2.753-.025-1.137-.262-2.06-.712-2.769-.45-.709-.994-1.259-1.631-1.649a5.628 5.628 0 00-2.083-.762 11.652 11.652 0 00-2.07-.157zM560.284 298.723c2.664-.058 5.104.255 7.32.94 2.216.685 4.199 1.659 5.949 2.923a21.052 21.052 0 014.593 4.549 26.846 26.846 0 013.272 5.835 35.283 35.283 0 011.991 6.739c.456 2.371.711 4.783.765 7.238a57.151 57.151 0 01-.366 7.824 192.365 192.365 0 00-15.231 1.93c-5.043.845-10.085 1.682-15.128 2.512.826 2.138 2.083 3.832 3.773 5.083 1.69 1.25 3.687 1.85 5.992 1.799 1.197-.026 2.502-.279 3.914-.76a32.398 32.398 0 004.205-1.777 47.204 47.204 0 003.993-2.266 77.876 77.876 0 003.276-2.184l-1.706 20.432a19.765 19.765 0 01-3.743 2.373 25.974 25.974 0 01-4.21 1.62 32.162 32.162 0 01-4.426.951 36.91 36.91 0 01-4.394.367c-2.964.065-5.681-.28-8.154-1.034-2.472-.754-4.719-1.835-6.742-3.243a25.053 25.053 0 01-5.344-5.026 30.032 30.032 0 01-3.869-6.383 37.337 37.337 0 01-2.408-7.359 41.079 41.079 0 01-.937-7.885 46.441 46.441 0 01.579-8.368 41.68 41.68 0 012.136-8.088 34.152 34.152 0 013.748-7.248 27.974 27.974 0 015.373-5.89c2.059-1.693 4.403-3.032 7.032-4.018 2.628-.987 5.544-1.515 8.747-1.586zm.507 18.946c-1.197.026-2.246.371-3.144 1.035a9.334 9.334 0 00-2.304 2.476 14.706 14.706 0 00-1.547 3.201 24 24 0 00-.873 3.164l13.262-1.55-.022-.988a12.903 12.903 0 00-.326-2.575 8.22 8.22 0 00-.928-2.383 5.354 5.354 0 00-1.633-1.739c-.669-.449-1.497-.663-2.485-.641zM481.07 302.175l-.029 19.047-13.368.833-.699 41.702-18.926 1.405-2.624-41.628-13.364 1.013.072-21.205 48.938-1.167zM531.045 301.074l-.03 19.047-13.368.834-.699 41.702-18.925 1.405-2.624-41.629-13.364 1.013.072-21.204 48.938-1.168zM410.419 303.82a378.412 378.412 0 0011.588-.075c1.496-.033 3-.074 4.511-.122a93.47 93.47 0 004.554-.257 888.872 888.872 0 00-2.764 31.528 3284.975 3284.975 0 00-2.046 31.557l-18.379 1.752.656-6.932a9.685 9.685 0 01-2.048 1.842c-.782.526-1.619.956-2.51 1.29-.891.334-1.814.579-2.769.735-.954.156-1.866.228-2.735.218-2.036.014-3.961-.34-5.773-1.064a19.124 19.124 0 01-5.006-2.944 23.951 23.951 0 01-4.139-4.356 30.507 30.507 0 01-3.149-5.276 30.86 30.86 0 01-2.011-5.683c-.477-1.937-.736-3.818-.776-5.643a232.444 232.444 0 01-.027-8.378c.041-2.89.164-5.791.37-8.7.205-2.909.494-5.791.865-8.644a86.66 86.66 0 011.459-8.208c3.656.1 7.326.183 11.011.252 3.685.069 7.353.033 11.003-.108-.631 2.62-1.254 5.246-1.87 7.88a159.337 159.337 0 00-1.645 7.943c-.48 2.661-.855 5.327-1.126 7.998a65.76 65.76 0 00-.316 8.093c.014.628.064 1.526.149 2.692.086 1.166.268 2.315.548 3.447.279 1.131.69 2.118 1.233 2.96.542.841 1.293 1.251 2.25 1.23 1.138-.025 2.145-.534 3.022-1.526.876-.993 1.64-2.32 2.293-3.981.652-1.662 1.201-3.575 1.648-5.741a86.206 86.206 0 001.108-6.785c.293-2.358.517-4.736.674-7.135.157-2.4.264-4.655.323-6.768.058-2.113.091-4.007.099-5.685.008-1.677.002-2.98-.019-3.907a33.616 33.616 0 00-.256-3.499z" fill="#FFC000"/></g></svg>