<svg width="423" height="184" xmlns="http://www.w3.org/2000/svg" xmlns:xlink="http://www.w3.org/1999/xlink" overflow="hidden"><defs><clipPath id="clip0"><path d="M158 182 581 182 581 366 158 366Z" fill-rule="evenodd" clip-rule="evenodd"/></clipPath></defs><g clip-path="url(#clip0)" transform="translate(-158 -182)"><path d="M438.667 185.069 440.91 209.862 554.973 199.542 565.589 316.881 169.195 352.744 158.579 235.405 267.031 225.593 264.788 200.801Z" fill="#FFC000" fill-rule="evenodd"/><path d="M492.53 227.16C495.918 226.738 499.253 226.798 502.535 227.339 505.816 227.881 508.792 228.936 511.462 230.504 514.133 232.073 516.377 234.162 518.197 236.772 520.016 239.382 521.157 242.545 521.62 246.26 521.909 248.578 521.97 250.705 521.804 252.642 521.638 254.579 521.223 256.389 520.557 258.072 519.892 259.754 518.959 261.349 517.758 262.857 516.558 264.365 515.068 265.848 513.288 267.307L526.253 284.885 506.683 291.309 497.451 273.174 491.946 274.042 493.455 292.686 474.287 295.075C473.591 288.281 472.891 281.517 472.188 274.784 471.484 268.051 470.799 261.286 470.133 254.488 469.766 251.063 469.404 247.668 469.044 244.302 468.685 240.937 468.382 237.534 468.134 234.094 470.118 233.062 472.089 232.168 474.047 231.411 476.005 230.654 477.984 230.007 479.984 229.471 481.985 228.935 484.026 228.484 486.108 228.119 488.19 227.754 490.331 227.434 492.53 227.16ZM492.737 242.617C492.142 242.691 491.567 242.8 491.012 242.945 490.457 243.089 489.921 243.27 489.404 243.485L490.758 260.156 491.828 260.023C493.106 259.864 494.386 259.538 495.667 259.046 496.949 258.555 498.075 257.901 499.045 257.086 500.014 256.271 500.767 255.287 501.302 254.134 501.837 252.981 502.013 251.661 501.827 250.175 501.672 248.927 501.358 247.804 500.887 246.807 500.415 245.809 499.798 244.973 499.035 244.299 498.272 243.624 497.366 243.134 496.316 242.827 495.267 242.52 494.074 242.45 492.737 242.617Z" fill="#7F6000" fill-rule="evenodd"/><path d="M227.71 260.532C229.82 260.269 231.969 260.136 234.157 260.135 236.345 260.134 238.473 260.322 240.542 260.698 242.611 261.073 244.569 261.652 246.417 262.432 248.265 263.213 249.926 264.251 251.4 265.546 252.874 266.841 254.096 268.409 255.065 270.25 256.034 272.091 256.676 274.274 256.99 276.8 257.198 278.465 257.155 280.054 256.861 281.57 256.567 283.085 256.046 284.478 255.299 285.748 254.552 287.018 253.59 288.142 252.414 289.118 251.238 290.095 249.872 290.876 248.316 291.463 250.31 291.727 252.164 292.25 253.876 293.033 255.588 293.816 257.088 294.836 258.377 296.094 259.665 297.351 260.723 298.819 261.551 300.496 262.379 302.174 262.917 304.008 263.165 305.999 263.473 308.466 263.284 310.647 262.6 312.543 261.916 314.439 260.894 316.106 259.534 317.543 258.174 318.98 256.555 320.215 254.677 321.249 252.799 322.283 250.817 323.156 248.733 323.869 246.649 324.581 244.539 325.146 242.403 325.563 240.267 325.98 238.263 326.306 236.391 326.539 234.548 326.769 232.63 326.94 230.638 327.052 228.645 327.165 226.647 327.18 224.645 327.098 222.643 327.015 220.657 326.818 218.686 326.505 216.716 326.192 214.832 325.725 213.034 325.105L205.788 267.701C207.367 266.81 209.058 265.973 210.862 265.189 212.666 264.406 214.518 263.708 216.418 263.093 218.318 262.479 220.222 261.955 222.13 261.521 224.037 261.087 225.898 260.758 227.71 260.532ZM231.582 279.243C230.987 279.317 230.419 279.479 229.877 279.727 229.334 279.976 228.81 280.253 228.305 280.557L229.271 290.486C229.955 290.401 230.794 290.236 231.79 289.991 232.785 289.747 233.726 289.365 234.612 288.847 235.499 288.33 236.219 287.636 236.775 286.767 237.331 285.898 237.523 284.78 237.353 283.413 237.245 282.551 236.975 281.838 236.543 281.273 236.11 280.708 235.61 280.265 235.042 279.944 234.474 279.622 233.874 279.41 233.242 279.308 232.611 279.206 232.057 279.184 231.582 279.243ZM232.834 298.734C231.973 298.842 231.152 299.034 230.371 299.313L231.46 309.499C231.917 309.532 232.365 309.559 232.805 309.58 233.246 309.6 233.674 309.585 234.09 309.533 234.714 309.455 235.389 309.303 236.115 309.077 236.842 308.85 237.507 308.496 238.11 308.013 238.714 307.53 239.189 306.92 239.535 306.183 239.88 305.446 239.983 304.513 239.842 303.384 239.701 302.254 239.371 301.36 238.851 300.7 238.331 300.041 237.734 299.549 237.06 299.226 236.386 298.902 235.669 298.72 234.91 298.679 234.15 298.638 233.458 298.656 232.834 298.734Z" fill="#7F6000" fill-rule="evenodd"/><path d="M440.75 234.429C443.395 234.1 445.855 234.163 448.13 234.618 450.405 235.074 452.478 235.842 454.348 236.922 456.218 238.002 457.895 239.354 459.381 240.98 460.866 242.606 462.149 244.43 463.232 246.453 464.314 248.476 465.203 250.644 465.898 252.956 466.594 255.269 467.094 257.643 467.397 260.08 467.72 262.666 467.864 265.273 467.829 267.903 462.788 268.864 457.802 270.021 452.87 271.375 447.939 272.729 443.006 274.076 438.073 275.415 439.112 277.458 440.536 279.016 442.345 280.089 444.154 281.161 446.202 281.554 448.49 281.269 449.679 281.121 450.951 280.736 452.307 280.114 453.663 279.493 454.998 278.76 456.312 277.918 457.625 277.075 458.872 276.187 460.054 275.255 461.236 274.324 462.248 273.488 463.091 272.749L463.474 293.254C462.427 294.29 461.265 295.204 459.991 295.997 458.717 296.789 457.375 297.47 455.967 298.038 454.559 298.605 453.124 299.071 451.66 299.435 450.196 299.798 448.751 300.069 447.325 300.247 444.383 300.613 441.643 300.547 439.106 300.049 436.569 299.55 434.223 298.703 432.067 297.508 429.911 296.313 427.968 294.828 426.238 293.052 424.507 291.275 423.007 289.289 421.738 287.094 420.468 284.898 419.419 282.539 418.592 280.016 417.764 277.494 417.186 274.91 416.856 272.265 416.512 269.501 416.42 266.706 416.581 263.879 416.741 261.053 417.175 258.297 417.882 255.614 418.588 252.93 419.586 250.399 420.874 248.02 422.162 245.642 423.744 243.506 425.62 241.612 427.497 239.718 429.693 238.146 432.208 236.897 434.723 235.648 437.571 234.826 440.75 234.429ZM443.184 253.23C441.996 253.378 440.988 253.828 440.161 254.58 439.334 255.332 438.654 256.231 438.121 257.279 437.588 258.326 437.183 259.44 436.908 260.621 436.633 261.802 436.45 262.881 436.361 263.858L449.4 260.965 449.278 259.985C449.174 259.153 448.978 258.309 448.691 257.455 448.403 256.601 448.014 255.842 447.524 255.178 447.034 254.515 446.433 253.994 445.722 253.615 445.011 253.236 444.165 253.107 443.184 253.23Z" fill="#7F6000" fill-rule="evenodd"/><path d="M362.279 245.931 364.19 264.887 350.972 267.078 354.524 308.645 335.835 311.971 328.984 270.814 315.789 273.183 313.702 252.076 362.279 245.931Z" fill="#7F6000" fill-rule="evenodd"/><path d="M411.895 239.746 413.806 258.702 400.588 260.893 404.14 302.461 385.451 305.786 378.6 264.63 365.405 266.999 363.318 245.892 411.895 239.746Z" fill="#7F6000" fill-rule="evenodd"/><path d="M292.144 254.764C294.083 254.582 296.005 254.388 297.911 254.18 299.817 253.973 301.735 253.749 303.667 253.508 305.153 253.323 306.645 253.13 308.144 252.928 309.643 252.726 311.145 252.486 312.649 252.208 312.616 262.835 312.769 273.386 313.109 283.862 313.449 294.337 313.842 304.873 314.288 315.471L296.178 319.087 296.125 312.122C295.616 312.879 294.999 313.56 294.274 314.163 293.55 314.767 292.761 315.28 291.908 315.703 291.056 316.126 290.162 316.464 289.228 316.716 288.294 316.968 287.394 317.133 286.528 317.211 284.504 317.433 282.553 317.277 280.675 316.741 278.798 316.206 277.037 315.399 275.394 314.321 273.75 313.243 272.23 311.939 270.832 310.408 269.434 308.877 268.21 307.234 267.162 305.478 266.113 303.723 265.253 301.906 264.581 300.028 263.909 298.15 263.46 296.305 263.234 294.492 262.901 291.817 262.608 289.04 262.354 286.159 262.101 283.278 261.928 280.38 261.836 277.464 261.744 274.548 261.738 271.652 261.817 268.775 261.896 265.898 262.101 263.126 262.433 260.459 266.081 260.185 269.741 259.895 273.415 259.588 277.089 259.281 280.735 258.872 284.353 258.36 283.992 261.031 283.639 263.708 283.295 266.392 282.95 269.075 282.674 271.766 282.467 274.462 282.26 277.159 282.158 279.85 282.161 282.536 282.163 285.222 282.333 287.916 282.671 290.621 282.748 291.245 282.889 292.133 283.093 293.284 283.297 294.436 283.596 295.561 283.989 296.658 284.382 297.756 284.892 298.696 285.517 299.478 286.143 300.26 286.931 300.592 287.882 300.474 289.012 300.333 289.962 299.724 290.733 298.647 291.504 297.57 292.13 296.172 292.609 294.452 293.089 292.732 293.441 290.772 293.665 288.571 293.888 286.371 294.025 284.082 294.076 281.707 294.127 279.332 294.109 276.942 294.02 274.539 293.932 272.135 293.809 269.88 293.652 267.772 293.495 265.664 293.335 263.775 293.172 262.105 293.009 260.435 292.871 259.14 292.756 258.218 292.682 257.624 292.594 257.046 292.494 256.485 292.394 255.924 292.277 255.35 292.144 254.764Z" fill="#7F6000" fill-rule="evenodd"/><path d="M493.955 218.875C497.343 218.453 500.678 218.513 503.96 219.055 507.241 219.596 510.217 220.651 512.887 222.22 515.558 223.788 517.802 225.877 519.622 228.488 521.441 231.098 522.582 234.26 523.045 237.975 523.334 240.293 523.395 242.42 523.229 244.357 523.063 246.295 522.648 248.104 521.982 249.787 521.317 251.469 520.384 253.064 519.183 254.572 517.983 256.08 516.493 257.563 514.713 259.022L527.678 276.601 508.108 283.024 498.876 264.89 493.371 265.757 494.88 284.401 475.712 286.79C475.016 279.996 474.316 273.233 473.612 266.5 472.909 259.767 472.224 253.001 471.558 246.203 471.191 242.778 470.829 239.383 470.469 236.018 470.11 232.652 469.807 229.249 469.559 225.81 471.543 224.778 473.514 223.883 475.472 223.126 477.43 222.369 479.409 221.722 481.409 221.186 483.41 220.65 485.451 220.2 487.533 219.834 489.615 219.469 491.756 219.15 493.955 218.875ZM494.162 234.332C493.567 234.406 492.992 234.515 492.437 234.66 491.882 234.805 491.346 234.985 490.829 235.2L492.183 251.872 493.253 251.738C494.531 251.579 495.811 251.253 497.092 250.762 498.374 250.27 499.5 249.617 500.47 248.801 501.439 247.986 502.192 247.002 502.727 245.849 503.262 244.696 503.438 243.376 503.252 241.891 503.097 240.642 502.783 239.52 502.312 238.522 501.84 237.525 501.223 236.688 500.46 236.014 499.697 235.34 498.791 234.849 497.741 234.542 496.692 234.235 495.499 234.165 494.162 234.332Z" fill="#FFFFFF" fill-rule="evenodd"/><path d="M229.135 252.247C231.245 251.984 233.394 251.852 235.582 251.851 237.77 251.85 239.898 252.037 241.967 252.413 244.036 252.789 245.994 253.367 247.842 254.148 249.69 254.928 251.351 255.966 252.825 257.261 254.299 258.556 255.521 260.124 256.49 261.965 257.459 263.806 258.101 265.99 258.415 268.516 258.623 270.18 258.58 271.77 258.286 273.285 257.992 274.801 257.471 276.193 256.724 277.464 255.977 278.734 255.015 279.857 253.839 280.834 252.663 281.81 251.297 282.592 249.74 283.178 251.735 283.442 253.589 283.966 255.301 284.748 257.013 285.531 258.513 286.551 259.802 287.809 261.09 289.067 262.148 290.534 262.976 292.212 263.804 293.889 264.342 295.723 264.59 297.714 264.898 300.181 264.709 302.362 264.025 304.258 263.341 306.155 262.319 307.821 260.959 309.258 259.599 310.695 257.98 311.931 256.102 312.965 254.224 313.998 252.242 314.872 250.158 315.584 248.074 316.297 245.964 316.861 243.828 317.279 241.692 317.696 239.688 318.021 237.816 318.254 235.973 318.484 234.055 318.655 232.063 318.768 230.07 318.88 228.072 318.895 226.07 318.813 224.068 318.731 222.082 318.533 220.111 318.22 218.141 317.908 216.257 317.441 214.459 316.82L207.213 259.416C208.792 258.525 210.483 257.688 212.287 256.905 214.091 256.121 215.943 255.423 217.843 254.809 219.743 254.195 221.647 253.671 223.555 253.237 225.462 252.803 227.323 252.473 229.135 252.247ZM233.007 270.959C232.412 271.033 231.844 271.194 231.302 271.443 230.759 271.691 230.235 271.968 229.73 272.272L230.696 282.202C231.38 282.117 232.219 281.952 233.215 281.707 234.21 281.462 235.151 281.081 236.037 280.563 236.924 280.045 237.644 279.351 238.2 278.482 238.756 277.613 238.948 276.495 238.778 275.128 238.67 274.267 238.4 273.553 237.968 272.988 237.535 272.424 237.035 271.981 236.467 271.659 235.898 271.337 235.299 271.126 234.667 271.023 234.036 270.921 233.482 270.899 233.007 270.959ZM234.259 290.449C233.397 290.557 232.577 290.75 231.796 291.028L232.885 301.214C233.342 301.247 233.79 301.274 234.23 301.295 234.671 301.316 235.099 301.3 235.515 301.248 236.139 301.17 236.814 301.018 237.54 300.792 238.267 300.566 238.932 300.211 239.535 299.728 240.139 299.246 240.614 298.636 240.96 297.899 241.305 297.161 241.408 296.228 241.267 295.099 241.126 293.969 240.796 293.075 240.276 292.416 239.756 291.756 239.159 291.265 238.485 290.941 237.811 290.618 237.094 290.436 236.335 290.394 235.575 290.353 234.883 290.372 234.259 290.449Z" fill="#FFFFFF" fill-rule="evenodd"/><path d="M442.175 226.145C444.82 225.815 447.28 225.878 449.555 226.334 451.83 226.79 453.903 227.557 455.773 228.637 457.643 229.717 459.32 231.07 460.806 232.695 462.291 234.321 463.575 236.145 464.657 238.168 465.739 240.191 466.628 242.359 467.323 244.671 468.019 246.984 468.519 249.359 468.822 251.796 469.145 254.381 469.289 256.989 469.254 259.619 464.213 260.579 459.227 261.736 454.295 263.09 449.364 264.444 444.431 265.791 439.498 267.13 440.537 269.174 441.961 270.732 443.77 271.804 445.579 272.876 447.627 273.27 449.915 272.984 451.104 272.836 452.376 272.451 453.732 271.83 455.088 271.208 456.423 270.476 457.737 269.633 459.05 268.79 460.297 267.903 461.479 266.971 462.661 266.039 463.673 265.203 464.517 264.464L464.899 284.969C463.852 286.005 462.691 286.919 461.416 287.712 460.142 288.505 458.801 289.185 457.393 289.753 455.984 290.321 454.549 290.786 453.085 291.15 451.621 291.513 450.176 291.784 448.75 291.962 445.808 292.329 443.068 292.263 440.531 291.764 437.994 291.265 435.648 290.419 433.492 289.224 431.336 288.029 429.393 286.543 427.663 284.767 425.932 282.991 424.432 281.005 423.163 278.809 421.893 276.613 420.845 274.254 420.017 271.731 419.19 269.209 418.611 266.625 418.281 263.98 417.937 261.217 417.845 258.421 418.006 255.595 418.166 252.768 418.6 250.013 419.307 247.329 420.013 244.646 421.011 242.115 422.299 239.736 423.587 237.357 425.169 235.221 427.045 233.327 428.922 231.433 431.118 229.862 433.633 228.613 436.148 227.364 438.996 226.541 442.175 226.145ZM444.609 244.945C443.421 245.093 442.413 245.543 441.586 246.295 440.759 247.047 440.079 247.947 439.546 248.994 439.013 250.041 438.608 251.155 438.333 252.337 438.058 253.518 437.875 254.597 437.786 255.574L450.825 252.681 450.703 251.7C450.599 250.868 450.403 250.025 450.116 249.17 449.828 248.316 449.439 247.557 448.949 246.894 448.459 246.231 447.859 245.709 447.147 245.33 446.436 244.951 445.59 244.823 444.609 244.945Z" fill="#FFFFFF" fill-rule="evenodd"/><path d="M363.705 237.646 365.615 256.602 352.397 258.793 355.949 300.36 337.26 303.686 330.41 262.53 317.215 264.899 315.127 243.792 363.705 237.646Z" fill="#FFFFFF" fill-rule="evenodd"/><path d="M413.321 231.461 415.231 250.418 402.013 252.608 405.565 294.176 386.876 297.501 380.026 256.345 366.831 258.714 364.743 237.607 413.321 231.461Z" fill="#FFFFFF" fill-rule="evenodd"/><path d="M293.569 246.479C295.508 246.297 297.43 246.103 299.336 245.896 301.242 245.688 303.16 245.464 305.092 245.224 306.578 245.038 308.07 244.845 309.569 244.643 311.068 244.441 312.57 244.201 314.074 243.923 314.041 254.55 314.194 265.102 314.534 275.577 314.874 286.052 315.267 296.589 315.713 307.186L297.603 310.802 297.55 303.837C297.04 304.595 296.424 305.275 295.699 305.879 294.975 306.482 294.186 306.995 293.333 307.418 292.481 307.841 291.587 308.179 290.653 308.431 289.719 308.684 288.819 308.849 287.953 308.926 285.929 309.149 283.978 308.992 282.1 308.456 280.223 307.921 278.462 307.114 276.819 306.036 275.175 304.959 273.655 303.654 272.257 302.123 270.859 300.592 269.635 298.949 268.587 297.194 267.538 295.438 266.678 293.621 266.006 291.744 265.334 289.866 264.885 288.02 264.659 286.207 264.326 283.533 264.033 280.755 263.779 277.874 263.526 274.994 263.353 272.095 263.261 269.179 263.169 266.263 263.163 263.367 263.242 260.49 263.321 257.613 263.526 254.841 263.858 252.174 267.506 251.9 271.166 251.61 274.84 251.303 278.514 250.996 282.16 250.587 285.778 250.076 285.417 252.746 285.064 255.423 284.72 258.107 284.375 260.791 284.099 263.481 283.892 266.178 283.685 268.874 283.583 271.565 283.586 274.251 283.588 276.937 283.758 279.632 284.095 282.336 284.173 282.96 284.314 283.848 284.518 285 284.722 286.151 285.021 287.276 285.414 288.374 285.807 289.471 286.317 290.411 286.942 291.194 287.568 291.976 288.356 292.307 289.307 292.189 290.437 292.048 291.387 291.439 292.158 290.362 292.929 289.285 293.555 287.887 294.034 286.167 294.514 284.448 294.866 282.488 295.09 280.287 295.313 278.086 295.45 275.798 295.501 273.422 295.552 271.047 295.534 268.657 295.445 266.254 295.357 263.851 295.234 261.595 295.077 259.487 294.92 257.379 294.76 255.49 294.597 253.82 294.434 252.15 294.296 250.855 294.181 249.934 294.107 249.339 294.019 248.762 293.919 248.201 293.819 247.64 293.702 247.066 293.569 246.479Z" fill="#FFFFFF" fill-rule="evenodd"/><path d="M445.985 184.98 449.192 209.667 562.766 194.909 577.948 311.745 183.253 363.03 168.071 246.194 276.058 232.163 272.85 207.477Z" stroke="#7F6000" stroke-width="4" stroke-miterlimit="8" fill="none" fill-rule="evenodd"/><path d="M420.811 200.852 421.175 203.838 419.992 203.983 420.784 210.484 423.734 210.124 423.49 208.124 426.467 207.762 427.075 212.747 415.203 214.194 414.839 211.208 415.96 211.072 415.168 204.571 414.047 204.707 413.683 201.721 420.811 200.852Z" fill="#7F6000" fill-rule="evenodd"/><path d="M410.591 202.098 410.955 205.084 409.95 205.207 413.128 211.417 414.042 211.305 414.406 214.291 407.896 215.085 407.563 212.35 408.657 212.216 407.991 210.705 404.798 211.094 404.443 212.73 405.465 212.605 405.798 215.34 400.857 215.943 400.493 212.957 401.444 212.841 402.992 206.054 401.988 206.177 401.624 203.191 410.591 202.098ZM405.838 205.89 405.085 209.485 407.317 209.213 405.838 205.89Z" fill="#7F6000" fill-rule="evenodd"/><path d="M393.88 204.257C394.255 204.251 394.603 204.262 394.921 204.29 395.817 204.369 396.574 204.686 397.194 205.241 397.821 205.808 398.187 206.522 398.292 207.382 398.371 208.028 398.275 208.634 398.004 209.201 397.733 209.762 397.34 210.198 396.826 210.51L398.895 213.151 399.792 213.042 400.156 216.028 395.663 216.575 392.326 211.813 390.792 212 391.049 214.107 391.991 213.993 392.355 216.979 385.576 217.805 385.212 214.819 386.225 214.695 385.433 208.194 384.419 208.318 384.056 205.332 390.835 204.506C391.444 204.431 392.011 204.373 392.533 204.331 393.056 204.288 393.505 204.264 393.88 204.257ZM392.18 207.181C391.9 207.173 391.395 207.213 390.666 207.302L390.226 207.355 390.516 209.732 391.054 209.666C391.759 209.58 392.235 209.501 392.481 209.428 392.745 209.354 392.957 209.207 393.119 208.987 393.281 208.779 393.343 208.513 393.304 208.191 393.265 207.868 393.141 207.622 392.932 207.453 392.723 207.279 392.472 207.188 392.18 207.181Z" fill="#7F6000" fill-rule="evenodd"/><path d="M382.733 205.493 383.097 208.479 382.111 208.599 382.661 213.119C382.802 214.272 382.75 215.237 382.505 216.013 382.259 216.783 381.772 217.422 381.045 217.929 380.319 218.436 379.387 218.759 378.251 218.898 377.337 219.009 376.513 218.997 375.781 218.862 375.037 218.734 374.429 218.475 373.957 218.083 373.485 217.698 373.113 217.206 372.84 216.609 372.563 216.03 372.349 215.116 372.196 213.866L371.709 209.867 370.75 209.984 370.386 206.998 376.77 206.22 377.134 209.206 376.542 209.278 377.055 213.483C377.177 214.488 377.356 215.16 377.592 215.502 377.827 215.837 378.192 215.975 378.689 215.914 379.101 215.864 379.381 215.675 379.53 215.348 379.678 215.026 379.696 214.402 379.584 213.475L379.035 208.974 378.407 209.051 378.043 206.065 382.733 205.493Z" fill="#7F6000" fill-rule="evenodd"/><path d="M369.015 207.165 369.656 212.42 367.315 212.705 367.039 210.436 365.613 210.61 366.405 217.111 367.508 216.976 367.872 219.962 360.869 220.816 360.505 217.83 361.581 217.699 360.789 211.198 359.354 211.373 359.631 213.641 357.29 213.926 356.65 208.672 369.015 207.165Z" fill="#7F6000" fill-rule="evenodd"/><path d="M354.506 208.933 354.87 211.919 353.865 212.042 357.043 218.252 357.957 218.14 358.321 221.126 351.811 221.92 351.478 219.185 352.572 219.051 351.905 217.54 348.713 217.929 348.358 219.565 349.38 219.441 349.713 222.175 344.772 222.778 344.408 219.792 345.359 219.676 346.907 212.89 345.903 213.012 345.539 210.026 354.506 208.933ZM349.753 212.725 348.999 216.32 351.232 216.048 349.753 212.725Z" fill="#7F6000" fill-rule="evenodd"/><path d="M342.724 210.369 343.088 213.355 342.003 213.487 343.179 223.135 339.072 223.636 332.898 216.735 333.434 221.129 334.537 220.995 334.901 223.981 329.781 224.605 329.417 221.619 330.511 221.485 329.718 214.984 328.624 215.118 328.261 212.132 334.17 211.411 339.501 217.377 339.071 213.844 338.058 213.968 337.694 210.982 342.724 210.369Z" fill="#7F6000" fill-rule="evenodd"/><path d="M317.575 213.434 317.939 216.42 316.755 216.564 317.548 223.065 320.498 222.706 320.254 220.706 323.231 220.343 323.839 225.329 311.967 226.776 311.603 223.79 312.724 223.653 311.931 217.152 310.81 217.289 310.447 214.303 317.575 213.434Z" fill="#7F6000" fill-rule="evenodd"/><path d="M304.671 215.007 305.035 217.992 303.851 218.137 304.643 224.638 307.593 224.278 307.35 222.279 310.327 221.916 310.934 226.901 299.062 228.348 298.698 225.362 299.819 225.226 299.027 218.725 297.906 218.861 297.542 215.875 304.671 215.007Z" fill="#7F6000" fill-rule="evenodd"/><path d="M294.45 216.252 294.814 219.238 293.81 219.361 296.987 225.571 297.902 225.459 298.266 228.445 291.756 229.239 291.422 226.504 292.516 226.371 291.85 224.859 288.658 225.248 288.302 226.884 289.324 226.76 289.657 229.495 284.717 230.097 284.353 227.111 285.303 226.995 286.851 220.209 285.847 220.331 285.483 217.345 294.45 216.252ZM289.698 220.044 288.944 223.639 291.177 223.367 289.698 220.044Z" fill="#7F6000" fill-rule="evenodd"/></g></svg>