<svg width="843" height="362" xmlns="http://www.w3.org/2000/svg" overflow="hidden"><defs><clipPath id="prefix__a"><path d="M198 179h843v362H198z" fill-rule="evenodd" clip-rule="evenodd"/></clipPath></defs><g clip-path="url(#prefix__a)" transform="translate(-198 -179)"><path d="M758.872 182.444l4.486 49.585 228.126-20.64 21.236 234.678-792.792 71.726-21.232-234.678 216.903-19.624-4.486-49.585z" fill="#FFC000" fill-rule="evenodd"/><path d="M866.598 266.625c6.776-.844 13.445-.725 20.009.358 6.563 1.083 12.515 3.193 17.855 6.33 5.341 3.137 9.83 7.316 13.469 12.536 3.638 5.22 5.92 11.545 6.846 18.975.578 4.636.701 8.891.369 12.765-.332 3.874-1.163 7.494-2.494 10.859-1.331 3.365-3.197 6.555-5.598 9.57-2.4 3.016-5.38 5.983-8.94 8.901l25.93 35.156-39.141 12.847-18.464-36.268-11.01 1.734 3.018 37.288-38.336 4.779a20872.796 20872.796 0 00-4.198-40.582 6326.024 6326.024 0 01-4.109-40.592c-.734-6.85-1.459-13.641-2.178-20.372a595.069 595.069 0 01-1.82-20.416 117.43 117.43 0 0111.825-5.367 116.578 116.578 0 0111.875-3.879 141.772 141.772 0 0112.248-2.704c4.164-.73 8.446-1.37 12.844-1.918zm.413 30.913a26.83 26.83 0 00-3.449.656c-1.111.29-2.183.65-3.216 1.08l2.708 33.343 2.139-.267c2.556-.318 5.116-.969 7.679-1.953 2.564-.983 4.815-2.29 6.755-3.92a16.939 16.939 0 004.515-5.905c1.07-2.306 1.421-4.945 1.05-7.917-.311-2.496-.938-4.742-1.881-6.737-.943-1.995-2.177-3.667-3.703-5.016-1.527-1.349-3.339-2.33-5.438-2.944-2.098-.613-4.485-.753-7.159-.42zM336.958 333.368c4.22-.526 8.518-.79 12.894-.792a71.007 71.007 0 0112.77 1.124c4.138.752 8.055 1.908 11.75 3.47a36.526 36.526 0 019.966 6.227c2.948 2.59 5.391 5.726 7.329 9.408 1.938 3.682 3.222 8.049 3.851 13.101.415 3.328.329 6.508-.259 9.539-.588 3.03-1.629 5.816-3.123 8.356-1.494 2.541-3.418 4.787-5.77 6.74-2.352 1.953-5.084 3.516-8.197 4.689 3.989.529 7.696 1.576 11.12 3.141 3.424 1.565 6.425 3.605 9.002 6.121 2.577 2.516 4.693 5.451 6.349 8.806 1.655 3.354 2.731 7.023 3.228 11.005.615 4.933.238 9.296-1.13 13.088-1.369 3.792-3.413 7.125-6.133 9.999-2.72 2.875-5.958 5.346-9.714 7.413a74.685 74.685 0 01-11.887 5.239 95.886 95.886 0 01-12.66 3.389c-4.272.835-8.281 1.485-12.025 1.952-3.685.459-7.52.801-11.506 1.027a122.81 122.81 0 01-11.985.09c-4.005-.165-7.977-.56-11.918-1.185a66.525 66.525 0 01-11.305-2.801l-14.491-114.808a108.716 108.716 0 0110.148-5.022 121.983 121.983 0 0111.112-4.192c3.8-1.228 7.608-2.276 11.423-3.144a113.82 113.82 0 0111.161-1.98zm7.743 37.423a11.55 11.55 0 00-3.41.969 31.43 31.43 0 00-3.143 1.659l1.932 19.859c1.367-.171 3.046-.501 5.037-.99a21.152 21.152 0 005.645-2.288 12.636 12.636 0 004.326-4.161c1.111-1.738 1.496-3.974 1.155-6.708-.214-1.724-.754-3.15-1.62-4.28-.865-1.129-1.865-2.016-3.002-2.659a10.73 10.73 0 00-3.599-1.271c-1.263-.205-2.37-.248-3.321-.13zm2.505 38.982a23.195 23.195 0 00-4.926 1.157l2.177 20.372c.914.067 1.811.121 2.692.162.88.041 1.736.01 2.568-.094 1.248-.155 2.599-.459 4.051-.912a12.128 12.128 0 003.991-2.127c1.207-.965 2.157-2.185 2.848-3.66.691-1.474.896-3.341.615-5.599-.282-2.259-.942-4.048-1.982-5.367-1.039-1.319-2.233-2.302-3.582-2.948a11.238 11.238 0 00-4.301-1.094c-1.519-.082-2.903-.046-4.151.11zM763.039 281.163c5.289-.659 10.209-.533 14.759.379 4.55.911 8.695 2.447 12.435 4.606a42.089 42.089 0 0110.066 8.116c2.97 3.252 5.538 6.9 7.702 10.946 2.164 4.046 3.942 8.382 5.333 13.007a86.386 86.386 0 012.998 14.248c.645 5.171.933 10.387.864 15.646a385.073 385.073 0 00-29.918 6.944c-9.863 2.708-19.728 5.401-29.595 8.08 2.079 4.086 4.927 7.202 8.544 9.347 3.618 2.144 7.715 2.931 12.291 2.361 2.378-.296 4.922-1.066 7.634-2.31a64.996 64.996 0 008.009-4.393 94.4 94.4 0 007.485-5.324c2.363-1.864 4.388-3.535 6.075-5.013l.766 41.009a39.666 39.666 0 01-6.967 5.486 52.077 52.077 0 01-8.047 4.082 64.817 64.817 0 01-8.615 2.794 73.993 73.993 0 01-8.671 1.624c-5.884.733-11.363.601-16.437-.396-5.073-.997-9.766-2.691-14.078-5.081a50.125 50.125 0 01-11.659-8.913 60.136 60.136 0 01-9-11.916c-2.539-4.392-4.636-9.11-6.291-14.155a82.303 82.303 0 01-3.472-15.502 92.698 92.698 0 01-.551-16.771 83.307 83.307 0 012.602-16.531c1.413-5.367 3.408-10.43 5.984-15.187a55.963 55.963 0 019.493-12.818c3.753-3.787 8.145-6.93 13.175-9.428 5.031-2.499 10.726-4.144 17.086-4.937zm4.867 37.601c-2.377.296-4.392 1.196-6.046 2.7-1.653 1.504-3.014 3.303-4.08 5.398a29.32 29.32 0 00-2.426 6.685c-.551 2.363-.916 4.521-1.095 6.474l26.079-5.785-.245-1.962a25.87 25.87 0 00-1.174-5.059c-.575-1.709-1.353-3.227-2.333-4.553a10.673 10.673 0 00-3.604-3.127c-1.422-.759-3.114-1.016-5.076-.771zM606.097 304.166l3.82 37.913-26.435 4.381 7.104 83.135-37.379 6.651-13.7-82.313-26.39 4.738-4.176-42.214 97.156-12.291zM705.329 291.797l3.82 37.913-26.434 4.381 7.103 83.135-37.379 6.651-13.7-82.313-26.39 4.738-4.176-42.214 97.156-12.291zM465.826 321.832a741.402 741.402 0 0023.046-2.511c2.972-.37 5.956-.757 8.954-1.161a187.08 187.08 0 009.01-1.44c-.066 21.255.24 42.357.92 63.308.68 20.95 1.466 42.023 2.357 63.219l-36.219 7.231-.107-13.93a19.335 19.335 0 01-3.701 4.083 24.128 24.128 0 01-4.732 3.08 29.042 29.042 0 01-5.361 2.026 31.466 31.466 0 01-5.399.99c-4.049.444-7.951.131-11.706-.94a38.344 38.344 0 01-10.563-4.84c-3.287-2.156-6.328-4.765-9.124-7.826a60.959 60.959 0 01-7.34-9.859 61.85 61.85 0 01-5.162-10.901c-1.343-3.756-2.24-7.447-2.692-11.072a462.423 462.423 0 01-1.761-16.666 309.81 309.81 0 01-1.036-17.39 294.586 294.586 0 01-.038-17.379c.158-5.754.568-11.298 1.231-16.632 7.296-.547 14.617-1.128 21.965-1.742a385.643 385.643 0 0021.876-2.455 2431.678 2431.678 0 00-2.117 16.063 317.761 317.761 0 00-1.655 16.141 207.882 207.882 0 00-.613 16.147c.006 5.372.345 10.762 1.02 16.17.155 1.248.437 3.024.845 5.327a41.212 41.212 0 001.792 6.748c.786 2.196 1.805 4.076 3.057 5.64 1.251 1.565 2.827 2.228 4.729 1.991 2.259-.281 4.159-1.499 5.702-3.653 1.542-2.154 2.793-4.951 3.752-8.39.96-3.439 1.663-7.36 2.111-11.762.447-4.401.722-8.977.823-13.728.102-4.751.065-9.53-.112-14.337a360.111 360.111 0 00-.736-13.534 500.474 500.474 0 00-.96-11.334c-.326-3.339-.603-5.93-.833-7.773a65.632 65.632 0 00-.523-3.466 74.677 74.677 0 00-.7-3.443z" fill="#7F6000" fill-rule="evenodd"/><path d="M869.448 250.056c6.776-.845 13.445-.726 20.009.358 6.563 1.083 12.515 3.193 17.855 6.33 5.341 3.137 9.83 7.315 13.469 12.536 3.638 5.22 5.921 11.545 6.847 18.974.577 4.636.7 8.891.368 12.766-.332 3.874-1.163 7.493-2.494 10.858-1.331 3.365-3.197 6.555-5.598 9.571-2.4 3.015-5.38 5.982-8.94 8.901l25.931 35.156-39.142 12.846-18.463-36.268-11.011 1.735 3.018 37.288-38.336 4.778a20194.06 20194.06 0 00-4.198-40.581 6326.354 6326.354 0 01-4.109-40.593c-.734-6.85-1.459-13.64-2.177-20.371a592.774 592.774 0 01-1.821-20.416 117.43 117.43 0 0111.825-5.367 116.338 116.338 0 0111.875-3.88 142.523 142.523 0 0112.248-2.704c4.165-.73 8.446-1.369 12.844-1.917zm.413 30.913a26.864 26.864 0 00-3.449.656 24.09 24.09 0 00-3.216 1.08l2.708 33.343 2.139-.267c2.556-.319 5.116-.97 7.679-1.953 2.564-.984 4.815-2.29 6.755-3.92a16.948 16.948 0 004.515-5.905c1.071-2.306 1.421-4.945 1.05-7.917-.311-2.497-.938-4.742-1.881-6.737-.943-1.995-2.177-3.667-3.703-5.016-1.527-1.349-3.339-2.33-5.437-2.944-2.099-.614-4.485-.754-7.16-.42zM339.808 316.798c4.22-.526 8.518-.79 12.894-.792a71.098 71.098 0 0112.77 1.125c4.138.751 8.055 1.908 11.75 3.469 3.696 1.562 7.018 3.637 9.966 6.228 2.948 2.59 5.392 5.726 7.329 9.407 1.938 3.682 3.222 8.049 3.852 13.101.414 3.329.328 6.508-.26 9.539-.588 3.031-1.629 5.817-3.123 8.357-1.494 2.54-3.417 4.787-5.77 6.74-2.352 1.953-5.084 3.516-8.197 4.689 3.989.528 7.696 1.575 11.12 3.14 3.424 1.565 6.425 3.606 9.002 6.121 2.577 2.516 4.693 5.451 6.349 8.806 1.656 3.355 2.731 7.023 3.228 11.006.615 4.933.238 9.296-1.13 13.088-1.369 3.792-3.413 7.125-6.133 9.999-2.72 2.874-5.958 5.345-9.714 7.413a74.645 74.645 0 01-11.887 5.239 96.041 96.041 0 01-12.66 3.389c-4.272.834-8.281 1.485-12.025 1.951-3.685.46-7.52.802-11.506 1.027-3.986.225-7.981.255-11.985.091a102.9 102.9 0 01-11.918-1.186 66.431 66.431 0 01-11.305-2.801l-14.491-114.808a108.716 108.716 0 0110.148-5.022 122.28 122.28 0 0111.112-4.192c3.8-1.228 7.608-2.276 11.423-3.144a113.82 113.82 0 0111.161-1.98zm7.743 37.424a11.58 11.58 0 00-3.41.968 31.963 31.963 0 00-3.143 1.659l1.932 19.859c1.367-.17 3.046-.5 5.037-.99a21.086 21.086 0 005.645-2.288 12.636 12.636 0 004.326-4.161c1.111-1.738 1.496-3.974 1.155-6.708-.214-1.723-.754-3.15-1.62-4.279-.865-1.13-1.865-2.016-3.002-2.659a10.753 10.753 0 00-3.599-1.272c-1.263-.205-2.37-.248-3.321-.129zm2.505 38.982c-1.723.214-3.365.6-4.926 1.157l2.177 20.371c.914.067 1.811.122 2.692.163.88.041 1.736.01 2.568-.094 1.248-.156 2.599-.46 4.051-.912a12.112 12.112 0 003.991-2.128c1.207-.965 2.157-2.185 2.848-3.659.692-1.475.896-3.341.615-5.6-.282-2.258-.942-4.047-1.982-5.366-1.039-1.319-2.233-2.302-3.581-2.949a11.247 11.247 0 00-4.302-1.093c-1.519-.083-2.903-.046-4.151.11zM765.889 264.594c5.29-.66 10.209-.533 14.759.378 4.55.912 8.695 2.447 12.435 4.607 3.74 2.159 7.095 4.865 10.066 8.116 2.97 3.251 5.538 6.9 7.702 10.946 2.164 4.046 3.942 8.381 5.333 13.006a86.524 86.524 0 012.999 14.249c.644 5.171.932 10.386.863 15.646a385.396 385.396 0 00-29.917 6.943c-9.864 2.708-19.729 5.402-29.595 8.08 2.078 4.087 4.926 7.203 8.544 9.347 3.617 2.145 7.714 2.932 12.29 2.361 2.378-.296 4.923-1.066 7.635-2.309a64.994 64.994 0 008.008-4.394 94.143 94.143 0 007.485-5.324c2.363-1.864 4.388-3.535 6.075-5.012l.766 41.009a39.666 39.666 0 01-6.967 5.486 52.161 52.161 0 01-8.047 4.081 64.671 64.671 0 01-8.615 2.794 73.786 73.786 0 01-8.671 1.624c-5.884.734-11.363.602-16.437-.396-5.073-.997-9.766-2.69-14.078-5.08a50.102 50.102 0 01-11.659-8.914 60.079 60.079 0 01-9-11.916c-2.539-4.391-4.636-9.109-6.291-14.154a82.32 82.32 0 01-3.472-15.502 92.798 92.798 0 01-.551-16.772 83.307 83.307 0 012.602-16.531c1.414-5.367 3.408-10.429 5.984-15.187a55.957 55.957 0 019.493-12.817c3.753-3.788 8.145-6.931 13.176-9.429 5.03-2.498 10.725-4.143 17.085-4.936zm4.868 37.6c-2.378.297-4.393 1.197-6.047 2.701-1.653 1.504-3.014 3.303-4.08 5.397a29.328 29.328 0 00-2.426 6.686c-.551 2.362-.916 4.52-1.095 6.474l26.079-5.786-.245-1.961a25.879 25.879 0 00-1.174-5.06c-.575-1.709-1.353-3.226-2.333-4.553a10.684 10.684 0 00-3.604-3.127c-1.422-.758-3.114-1.015-5.075-.771zM608.947 287.597l3.82 37.912-26.435 4.382 7.104 83.134-37.379 6.651-13.7-82.312-26.39 4.738-4.176-42.214 97.156-12.291zM708.179 275.228l3.82 37.912-26.434 4.382 7.103 83.134-37.379 6.651-13.7-82.312-26.39 4.738-4.176-42.214 97.156-12.291zM468.676 305.262a753.278 753.278 0 0023.046-2.51c2.972-.371 5.956-.758 8.954-1.162 2.998-.404 6.001-.883 9.01-1.44-.066 21.255.24 42.358.92 63.308.68 20.951 1.466 42.024 2.357 63.22l-36.219 7.23-.107-13.929a19.335 19.335 0 01-3.701 4.083 24.124 24.124 0 01-4.732 3.079 29.063 29.063 0 01-5.36 2.027c-1.869.504-3.669.834-5.4.989-4.049.445-7.951.131-11.706-.94a38.315 38.315 0 01-10.563-4.84c-3.286-2.155-6.328-4.764-9.124-7.826a60.974 60.974 0 01-7.34-9.859 61.802 61.802 0 01-5.161-10.9c-1.344-3.756-2.241-7.447-2.693-11.073a462.183 462.183 0 01-1.761-16.666 309.754 309.754 0 01-1.036-17.39 295.45 295.45 0 01-.038-17.379c.158-5.753.568-11.297 1.231-16.631 7.296-.547 14.618-1.128 21.965-1.742a386.56 386.56 0 0021.876-2.455 2414.145 2414.145 0 00-2.117 16.063 317.644 317.644 0 00-1.655 16.141 208.36 208.36 0 00-.613 16.147c.006 5.371.346 10.761 1.02 16.17.155 1.248.437 3.024.845 5.327a41.34 41.34 0 001.792 6.748c.786 2.196 1.805 4.076 3.057 5.64 1.251 1.564 2.828 2.228 4.729 1.991 2.259-.282 4.159-1.5 5.702-3.654 1.542-2.153 2.793-4.95 3.753-8.39.959-3.439 1.662-7.359 2.11-11.761.447-4.402.722-8.978.824-13.729.102-4.751.064-9.53-.112-14.336a360.198 360.198 0 00-.737-13.535 499.853 499.853 0 00-.96-11.333c-.326-3.34-.603-5.931-.833-7.773a66.7 66.7 0 00-.522-3.466 75.822 75.822 0 00-.701-3.444z" fill="#FFF" fill-rule="evenodd"/><path d="M773.507 182.266l6.415 49.372 227.148-29.515 30.36 233.672-789.387 102.57-30.362-233.672 215.973-28.063-6.416-49.372z" stroke="#7F6000" stroke-width="4" stroke-miterlimit="8" fill="none"/><path d="M723.16 214.01l.728 5.971-2.367.289 1.585 13.002 5.9-.719-.488-3.999 5.954-.726 1.216 9.971-23.745 2.894-.728-5.972 2.242-.273-1.584-13.002-2.242.273-.728-5.972 14.257-1.737zM702.719 216.501l.728 5.972-2.009.245 6.355 12.42 1.829-.223.728 5.972-13.02 1.587-.666-5.47 2.188-.267-1.333-3.022-6.385.778-.711 3.272 2.044-.249.667 5.469-9.882 1.205-.727-5.972 1.901-.232 3.096-13.572-2.009.244-.728-5.971 17.934-2.186zm-9.505 7.583l-1.507 7.191 4.465-.545-2.958-6.646zM669.298 220.82c.751-.013 1.445.009 2.083.064 1.79.158 3.305.793 4.545 1.903 1.254 1.134 1.986 2.561 2.196 4.283.158 1.291-.034 2.503-.576 3.637-.543 1.122-1.328 1.994-2.356 2.617l4.138 5.283 1.793-.218.728 5.972-8.985 1.095-6.675-9.525-3.067.374.514 4.215 1.883-.23.728 5.972-13.558 1.652-.728-5.972 2.027-.247-1.585-13.001-2.026.246-.728-5.972 13.558-1.652a86.577 86.577 0 013.397-.35 42.3 42.3 0 012.694-.146zm-3.401 5.847c-.56-.017-1.569.064-3.028.241l-.879.108.579 4.752 1.077-.131c1.41-.172 2.362-.331 2.854-.475.527-.15.953-.444 1.275-.884.326-.416.449-.946.37-1.592-.078-.646-.326-1.137-.744-1.474-.418-.35-.92-.531-1.504-.545zM647.004 223.291l.728 5.972-1.973.24 1.101 9.039c.282 2.307.177 4.237-.313 5.789-.492 1.54-1.465 2.818-2.919 3.832-1.453 1.015-3.316 1.66-5.587 1.937-1.83.223-3.477.199-4.941-.071-1.488-.256-2.704-.775-3.648-1.558-.944-.77-1.688-1.754-2.234-2.949-.554-1.158-.983-2.986-1.288-5.485l-.974-7.998-1.919.233-.728-5.972 12.769-1.556.728 5.972-1.184.144 1.025 8.411c.245 2.009.603 3.355 1.074 4.037.47.671 1.202.946 2.194.825.825-.101 1.386-.478 1.682-1.133.298-.643.334-1.891.108-3.744l-1.097-9.003-1.256.153-.728-5.972 9.38-1.143zM619.568 226.634l1.281 10.51-4.681.57-.553-4.537-2.851.347 1.584 13.002 2.206-.268.728 5.972-14.006 1.706-.728-5.972 2.152-.262-1.585-13.002-2.869.35.553 4.537-4.681.571-1.281-10.51 24.731-3.014zM590.549 230.171l.728 5.972-2.009.245 6.355 12.42 1.829-.223.728 5.972-13.02 1.587-.666-5.47 2.188-.266-1.333-3.023-6.385.778-.711 3.272 2.044-.249.667 5.47-9.882 1.204-.728-5.972 1.901-.232 3.097-13.572-2.009.245-.728-5.972 17.934-2.186zm-9.505 7.583l-1.507 7.191 4.465-.544-2.958-6.647zM566.986 233.043l.728 5.971-2.17.265 2.351 19.297-8.213 1.001-12.347-13.802 1.071 8.788 2.205-.269.728 5.972-10.24 1.248-.728-5.972 2.188-.267-1.584-13.002-2.188.267-.728-5.972 11.818-1.44 10.664 11.932-.861-7.066-2.027.247-.728-5.972 10.061-1.226zM516.688 239.173l.728 5.972-2.367.288 1.584 13.002 5.9-.719-.487-3.999 5.954-.726 1.215 9.971-23.744 2.894-.728-5.972 2.242-.273-1.585-13.002-2.241.273-.728-5.972 14.257-1.737zM490.879 242.318l.728 5.972-2.367.288 1.584 13.002 5.9-.719-.487-3.999 5.954-.726 1.215 9.971-23.744 2.894-.728-5.972 2.242-.273-1.585-13.002-2.241.273-.728-5.972 14.257-1.737zM470.438 244.809l.727 5.972-2.008.245 6.355 12.42 1.829-.222.728 5.971-13.02 1.587-.667-5.47 2.188-.266-1.333-3.023-6.384.778-.712 3.272 2.045-.249.666 5.47-9.881 1.204-.728-5.972 1.901-.232 3.096-13.572-2.008.245-.728-5.972 17.934-2.186zm-9.505 7.583l-1.508 7.191 4.466-.544-2.958-6.647z" fill="#7F6000" fill-rule="evenodd"/></g></svg>